<?xml version="1.0" encoding="UTF-8"?>
<svg
        width="300"
        height="400"
        viewBox="50 60 100 100"
        xmlns="http://www.w3.org/2000/svg"
>
    <title>Owl + GraphQL Logo</title>

    <!-- Background (optional) -->
    <!-- Remove or change if you prefer a transparent background -->
<!--    <rect width="100%" height="100%" fill="#ffffff" />-->

    <!-- Owl Body -->
    <ellipse
            cx="100"
            cy="120"
            rx="40"
            ry="50"
            fill="#333333"
    />

    <!-- Owl Head -->
    <circle
            cx="100"
            cy="70"
            r="25"
            fill="#333333"
    />

    <!-- Owl Eyes (two white circles with dark pupils) -->
    <circle
            cx="90"
            cy="68"
            r="5"
            fill="#ffffff"
    />
    <circle
            cx="110"
            cy="68"
            r="5"
            fill="#ffffff"
    />
    <!-- Pupils -->
    <circle
            cx="90"
            cy="68"
            r="2"
            fill="#333333"
    />
    <circle
            cx="110"
            cy="68"
            r="2"
            fill="#333333"
    />

    <!-- Small Owl Beak (an optional triangle or small ellipse) -->
    <polygon
            points="95,75 105,75 100,80"
            fill="#ffffff"
    />

    <!-- GraphQL Hexagon on the Owl's Chest -->
    <g transform="translate(100,120)">
        <!-- We create the 6 vertices of a regular hex, radius ~12 -->
        <!-- Angles at 0°, 60°, 120°, 180°, 240°, 300°; each line + circle. -->
        <!-- Style (magenta) references GraphQL's typical color. -->

        <!-- Lines (edges of the hex) -->
        <line x1="12" y1="0" x2="6"  y2="10.4" stroke="#22d3ee" stroke-width="2" />
        <line x1="6"  y1="10.4" x2="-6" y2="10.4" stroke="#22d3ee" stroke-width="2" />
        <line x1="-6" y1="10.4" x2="-12" y2="0"   stroke="#22d3ee" stroke-width="2" />
        <line x1="-12" y1="0" x2="-6" y2="-10.4"  stroke="#22d3ee" stroke-width="2" />
        <line x1="-6" y1="-10.4" x2="6" y2="-10.4" stroke="#22d3ee" stroke-width="2" />
        <line x1="6"  y1="-10.4" x2="12" y2="0"    stroke="#22d3ee" stroke-width="2" />

        <!-- Circles for each vertex -->
        <circle cx="12"  cy="0"    r="3" fill="#22d3ee" />
        <circle cx="6"   cy="10.4" r="3" fill="#22d3ee" />
        <circle cx="-6"  cy="10.4" r="3" fill="#22d3ee" />
        <circle cx="-12" cy="0"    r="3" fill="#22d3ee" />
        <circle cx="-6"  cy="-10.4" r="3" fill="#22d3ee" />
        <circle cx="6"   cy="-10.4" r="3" fill="#22d3ee" />
    </g>

</svg>
